<svg width="20" height="20" viewBox="0 0 20 20" fill="none" xmlns="http://www.w3.org/2000/svg">
<path fill-rule="evenodd" clip-rule="evenodd" d="M10 10.9407L15.6525 17.0453H4.34753L10 10.9407Z" fill="#191414"/>
<path fill-rule="evenodd" clip-rule="evenodd" d="M5.37869 13.76C4.06839 12.5553 3.31425 10.8947 3.31425 9.11738C3.31425 5.56927 6.30754 2.69296 9.99996 2.69296C13.6924 2.69296 16.6857 5.56927 16.6857 9.11738C16.6857 10.8947 15.9315 12.5553 14.6212 13.76L15.3323 14.4741C16.8434 13.0849 17.7142 11.1673 17.7142 9.11738C17.7142 5.02341 14.2604 1.70459 9.99996 1.70459C5.73948 1.70459 2.28568 5.02341 2.28568 9.11738C2.28568 11.1673 3.15656 13.0849 4.66761 14.4741L5.37869 13.76Z" fill="#191414"/>
<path fill-rule="evenodd" clip-rule="evenodd" d="M7.03762 12.0917C6.19755 11.3193 5.71424 10.2551 5.71424 9.11562C5.71424 6.84119 7.63302 4.99741 9.99995 4.99741C12.3669 4.99741 14.2857 6.84119 14.2857 9.11562C14.2857 10.2551 13.8024 11.3193 12.9623 12.0917L13.6734 12.8058C14.7142 11.8489 15.3142 10.5276 15.3142 9.11562C15.3142 6.29533 12.935 4.00903 9.99995 4.00903C7.06496 4.00903 4.68567 6.29533 4.68567 9.11562C4.68567 10.5276 5.28571 11.8489 6.32654 12.8058L7.03762 12.0917Z" fill="#191414"/>
<path fill-rule="evenodd" clip-rule="evenodd" d="M8.69655 10.4234C8.3267 10.0833 8.11423 9.61548 8.11423 9.11386C8.11423 8.11312 8.9585 7.30185 9.99995 7.30185C11.0414 7.30185 11.8857 8.11312 11.8857 9.11386C11.8857 9.61548 11.6732 10.0833 11.3033 10.4234L12.0144 11.1375C12.585 10.6129 12.9142 9.888 12.9142 9.11386C12.9142 7.56725 11.6095 6.31348 9.99995 6.31348C8.39043 6.31348 7.08566 7.56725 7.08566 9.11386C7.08566 9.888 7.41487 10.6129 7.98547 11.1375L8.69655 10.4234Z" fill="#191414"/>
</svg>
