<svg width="18" height="18" viewBox="0 0 18 18" fill="none" xmlns="http://www.w3.org/2000/svg">
<path d="M16.0527 2.59055C15.1587 1.68855 13.9584 1.15545 12.6898 1.09696C11.4211 1.03848 10.1769 1.45888 9.20367 2.2748C9.09173 2.35929 8.95689 2.40801 8.81679 2.41458C8.67584 2.41047 8.53987 2.3615 8.42866 2.2748C7.45592 1.45842 6.21173 1.0377 4.94315 1.09619C3.67457 1.15469 2.47438 1.68811 1.58089 2.59055C0.619927 3.55151 0.0907745 4.82946 0.0907745 6.18853C0.0907745 7.5476 0.619927 8.82555 1.54844 9.75157L7.11702 16.2699C7.32685 16.516 7.58761 16.7137 7.88129 16.8493C8.17498 16.9848 8.49458 17.055 8.81804 17.055C9.1415 17.055 9.4611 16.9848 9.75479 16.8493C10.0485 16.7137 10.3092 16.516 10.5191 16.2699L16.0539 9.78651C16.528 9.31514 16.9039 8.75445 17.1599 8.13686C17.4159 7.51928 17.5469 6.85706 17.5453 6.18853C17.5464 5.51996 17.415 4.85779 17.1589 4.24025C16.9027 3.62271 16.5267 3.06202 16.0527 2.59055Z" fill="white"/>
</svg>
