<svg width="18" height="18" viewBox="0 0 18 18" fill="none" xmlns="http://www.w3.org/2000/svg">
<path d="M3.36473 13.091H14.2738C14.8738 13.091 15.3647 12.6001 15.3647 12.0001V3.27279C15.3647 2.67279 14.8738 2.18188 14.2738 2.18188H3.36473C2.76473 2.18188 2.27382 2.67279 2.27382 3.27279V12.0001C2.27382 12.6001 2.76473 13.091 3.36473 13.091ZM3.36473 3.27279H14.2738V12.0001H3.36473V3.27279ZM17.0011 15.2728H0.636366C0.336366 15.2728 0.0909119 15.5182 0.0909119 15.8182C0.0909119 16.1182 0.336366 16.3637 0.636366 16.3637H17.0011C17.3011 16.3637 17.5465 16.1182 17.5465 15.8182C17.5465 15.5182 17.3011 15.2728 17.0011 15.2728Z" fill="#191414"/>
</svg>
