<svg width="18" height="18" viewBox="0 0 18 18" fill="none" xmlns="http://www.w3.org/2000/svg">
<path d="M14.2422 1.18188L13.5249 2.02135C15.2599 3.62986 16.3524 5.9205 16.3524 8.46639C16.3524 11.0123 15.2588 13.3029 13.5249 14.9114L14.2411 15.7509C15.2535 14.8266 16.0621 13.7015 16.6154 12.4473C17.1686 11.1932 17.4544 9.83743 17.4545 8.46663C17.4546 7.09583 17.1691 5.74006 16.616 4.48579C16.0629 3.23152 15.2544 2.10629 14.2422 1.18188ZM11.7426 4.10845L11.0263 4.94791C11.4936 5.40716 11.8647 5.95489 12.118 6.55912C12.3713 7.16335 12.5017 7.81199 12.5016 8.46717C12.5015 9.12235 12.3709 9.77094 12.1174 10.3751C11.8639 10.9792 11.4926 11.5269 11.0252 11.986L11.7415 12.8254C12.8857 11.7252 13.6019 10.1805 13.6019 8.46749C13.6019 6.75446 12.8868 5.20866 11.7426 4.10845ZM0 5.16575V11.767H3.08499L8.80169 15.0677V1.86512L3.08499 5.16575H0ZM7.70148 3.77068V13.1621L3.37985 10.6668H1.10021V6.26596H3.37985L7.70148 3.77068Z" fill="#191414"/>
</svg>
