<svg width="26" height="26" viewBox="0 0 26 26" fill="none" xmlns="http://www.w3.org/2000/svg">
<path d="M7.17415 14.3483C8.16468 14.3483 8.96769 13.5452 8.96769 12.5548C8.96769 11.5643 8.16468 10.7612 7.17415 10.7612C6.18362 10.7612 5.38062 11.5643 5.38062 12.5548C5.38062 13.5452 6.18362 14.3483 7.17415 14.3483Z" fill="white"/>
<path d="M12.5548 14.3483C13.5453 14.3483 14.3483 13.5452 14.3483 12.5548C14.3483 11.5643 13.5453 10.7612 12.5548 10.7612C11.5642 10.7612 10.7612 11.5643 10.7612 12.5548C10.7612 13.5452 11.5642 14.3483 12.5548 14.3483Z" fill="white"/>
<path d="M19.7289 12.5548C19.7289 13.5452 18.9259 14.3483 17.9354 14.3483C16.9448 14.3483 16.1418 13.5452 16.1418 12.5548C16.1418 11.5643 16.9448 10.7612 17.9354 10.7612C18.9259 10.7612 19.7289 11.5643 19.7289 12.5548Z" fill="white"/>
</svg>
