<svg width="16" height="19" viewBox="0 0 16 19" fill="none" xmlns="http://www.w3.org/2000/svg">
<path d="M7.93333 18.5334C8.53449 18.5334 9.11103 18.2999 9.53611 17.8842C9.96119 17.4685 10.2 16.9047 10.2 16.3168H5.66667C5.66667 16.9047 5.90548 17.4685 6.33056 17.8842C6.75564 18.2999 7.33218 18.5334 7.93333 18.5334ZM7.93333 2.92669L7.03007 3.10512C6.00549 3.30926 5.08451 3.85332 4.42301 4.6452C3.7615 5.43708 3.40011 6.42815 3.4 7.45065C3.4 8.14665 3.24813 9.88553 2.8798 11.5978C2.69847 12.4479 2.45367 13.3334 2.1284 14.1003H13.7383C13.413 13.3334 13.1693 12.449 12.9869 11.5978C12.6185 9.88553 12.4667 8.14665 12.4667 7.45065C12.4663 6.42834 12.1048 5.43753 11.4433 4.64588C10.7818 3.85422 9.86099 3.31033 8.8366 3.10623L7.93333 2.92558V2.92669ZM14.9827 14.1003C15.2354 14.5957 15.5278 14.988 15.8667 15.2086H0C0.338867 14.988 0.631267 14.5957 0.884 14.1003C1.904 12.1054 2.26667 8.42593 2.26667 7.45065C2.26667 4.76863 4.216 2.52992 6.80567 2.01901C6.78985 1.86491 6.80724 1.70928 6.8567 1.56215C6.90617 1.41502 6.98663 1.27967 7.09288 1.16482C7.19913 1.04997 7.32882 0.958166 7.47358 0.895338C7.61834 0.83251 7.77496 0.800049 7.93333 0.800049C8.09171 0.800049 8.24833 0.83251 8.39309 0.895338C8.53785 0.958166 8.66754 1.04997 8.77379 1.16482C8.88004 1.27967 8.96049 1.41502 9.00996 1.56215C9.05943 1.70928 9.07682 1.86491 9.061 2.01901C10.342 2.2738 11.4936 2.95368 12.3207 3.94353C13.1479 4.93337 13.5998 6.17234 13.6 7.45065C13.6 8.42593 13.9627 12.1054 14.9827 14.1003Z" fill="white"/>
</svg>
