<svg width="19" height="18" viewBox="0 0 19 18" fill="none" xmlns="http://www.w3.org/2000/svg">
<path d="M6.81818 4.90916H11.7273V6.54552L15.5455 4.3637L11.7273 2.18188V3.81825H6.81818C4.09091 3.81825 1.90909 6.00007 1.90909 8.72734C1.90909 9.38189 2.01818 10.0364 2.34545 10.691L3.32727 10.1455C3.10909 9.70916 3 9.27279 3 8.72734C3 6.65461 4.74545 4.90916 6.81818 4.90916ZM16.7455 6.7637L15.7636 7.30916C15.9818 7.74552 16.0909 8.18188 16.0909 8.72734C16.0909 10.8001 14.3455 12.5455 12.2727 12.5455H7.36363V10.9092L3.54545 13.091L7.36363 15.2728V13.6364H12.2727C15 13.6364 17.1818 11.4546 17.1818 8.72734C17.1818 8.07279 17.0727 7.41825 16.7455 6.7637Z" fill="#191414"/>
</svg>
