<svg width="14" height="15" viewBox="0 0 14 15" fill="none" xmlns="http://www.w3.org/2000/svg">
<g clip-path="url(#clip0_147_1704)">
<path fill-rule="evenodd" clip-rule="evenodd" d="M10.5231 10.4162L13.4045 13.7974L12.9047 14.2269L10.0155 10.8457C9.02115 11.6006 7.90189 11.978 6.65769 11.978C5.90284 11.978 5.18053 11.8309 4.49078 11.5368C3.80102 11.2427 3.20756 10.847 2.71038 10.3499C2.21321 9.85272 1.81757 9.25925 1.52346 8.56948C1.22936 7.8797 1.0823 7.1574 1.08228 6.40256C1.08225 5.64773 1.22932 4.92543 1.52346 4.23565C1.81761 3.54588 2.21325 2.95241 2.71038 2.45526C3.20752 1.9581 3.80098 1.56246 4.49078 1.26833C5.18057 0.974211 5.90288 0.827148 6.65769 0.827148C7.41251 0.827148 8.13481 0.974211 8.82461 1.26833C9.5144 1.56246 10.1079 1.9581 10.605 2.45526C11.1021 2.95241 11.4978 3.54588 11.7919 4.23565C12.0861 4.92543 12.2331 5.64773 12.2331 6.40256C12.2331 7.17823 12.0821 7.91224 11.7802 8.60462C11.4783 9.297 11.0592 9.90088 10.523 10.4163L10.5231 10.4162ZM6.65775 11.322C7.54794 11.322 8.37045 11.1021 9.12531 10.6622C9.88017 10.2223 10.4775 9.6249 10.9174 8.87006C11.3573 8.11522 11.5773 7.29271 11.5773 6.4025C11.5773 5.5123 11.3573 4.68978 10.9174 3.93495C10.4775 3.18011 9.88012 2.58275 9.12531 2.14287C8.3705 1.70298 7.54798 1.48304 6.65775 1.48304C5.76753 1.48304 4.94501 1.70298 4.1902 2.14287C3.43538 2.58275 2.83802 3.18011 2.39812 3.93495C1.95821 4.68978 1.73827 5.5123 1.73829 6.4025C1.73831 7.29271 1.95825 8.11522 2.39812 8.87006C2.83798 9.6249 3.43534 10.2223 4.1902 10.6622C4.94505 11.1021 5.76757 11.322 6.65775 11.322Z" fill="white"/>
</g>
<defs>
<clipPath id="clip0_147_1704">
<rect width="13.3998" height="13.3998" fill="white" transform="translate(0.244751 0.827148)"/>
</clipPath>
</defs>
</svg>
