<svg width="23" height="23" viewBox="0 0 23 23" fill="none" xmlns="http://www.w3.org/2000/svg">
<g clip-path="url(#clip0_158_1810)">
<path d="M9.63672 4.02925C10.0343 2.39032 12.3658 2.39032 12.7634 4.02925C12.823 4.27546 12.94 4.50411 13.1047 4.69658C13.2694 4.88905 13.4773 5.03991 13.7113 5.13688C13.9454 5.23384 14.199 5.27418 14.4516 5.25459C14.7042 5.23501 14.9485 5.15606 15.1648 5.02418C16.605 4.14685 18.2542 5.79512 17.3768 7.23618C17.2452 7.45239 17.1663 7.69663 17.1468 7.94904C17.1273 8.20144 17.1676 8.4549 17.2644 8.6888C17.3613 8.92271 17.5119 9.13046 17.7042 9.29516C17.8965 9.45987 18.1249 9.57689 18.3709 9.63672C20.0098 10.0343 20.0098 12.3658 18.3709 12.7634C18.1246 12.823 17.896 12.94 17.7035 13.1047C17.511 13.2694 17.3602 13.4773 17.2632 13.7113C17.1663 13.9454 17.1259 14.199 17.1455 14.4516C17.1651 14.7042 17.244 14.9485 17.3759 15.1648C18.2533 16.605 16.605 18.2542 15.1639 17.3768C14.9477 17.2452 14.7035 17.1663 14.4511 17.1468C14.1987 17.1273 13.9452 17.1676 13.7113 17.2644C13.4774 17.3613 13.2696 17.5119 13.1049 17.7042C12.9402 17.8965 12.8232 18.1249 12.7634 18.3709C12.3658 20.0098 10.0343 20.0098 9.63672 18.3709C9.57706 18.1246 9.46011 17.896 9.29539 17.7035C9.13066 17.511 8.92282 17.3602 8.68877 17.2632C8.45473 17.1663 8.20109 17.1259 7.94852 17.1455C7.69594 17.1651 7.45155 17.244 7.23525 17.3759C5.79512 18.2533 4.14592 16.605 5.02325 15.1639C5.15494 14.9477 5.23376 14.7035 5.2533 14.4511C5.27284 14.1987 5.23254 13.9452 5.13569 13.7113C5.03884 13.4774 4.88816 13.2696 4.6959 13.1049C4.50365 12.9402 4.27524 12.8232 4.02925 12.7634C2.39032 12.3658 2.39032 10.0343 4.02925 9.63672C4.27546 9.57706 4.50411 9.46011 4.69658 9.29539C4.88905 9.13066 5.03991 8.92282 5.13688 8.68877C5.23384 8.45473 5.27418 8.20109 5.25459 7.94852C5.23501 7.69594 5.15606 7.45155 5.02418 7.23525C4.14685 5.79512 5.79512 4.14592 7.23618 5.02325C8.16952 5.59072 9.37912 5.08858 9.63672 4.02925Z" stroke="white" stroke-width="0.933333" stroke-linecap="round" stroke-linejoin="round"/>
<path d="M11.2 13.9999C12.7464 13.9999 14 12.7463 14 11.1999C14 9.65351 12.7464 8.3999 11.2 8.3999C9.65363 8.3999 8.40002 9.65351 8.40002 11.1999C8.40002 12.7463 9.65363 13.9999 11.2 13.9999Z" stroke="white" stroke-width="0.933333" stroke-linecap="round" stroke-linejoin="round"/>
</g>
<defs>
<clipPath id="clip0_158_1810">
<rect width="22.4" height="22.4" fill="white"/>
</clipPath>
</defs>
</svg>
