<svg width="19" height="18" viewBox="0 0 19 18" fill="none" xmlns="http://www.w3.org/2000/svg">
<path d="M5.58406 7.22973L6.31632 6.39667C5.16563 5.04295 3.49191 4.31403 1.81818 4.31403V5.35535C3.17808 5.35535 4.53798 5.98014 5.47945 7.02147L5.58406 7.22973ZM13.4296 12.1239C12.1743 12.1239 11.0237 11.6033 10.0822 10.7702L9.45455 11.6033C10.5006 12.6446 11.9651 13.1653 13.4296 13.1653V14.7272L17.0909 12.6446L13.4296 10.562V12.1239ZM13.4296 5.87601V7.43799L17.0909 5.35535L13.4296 3.27271V4.83469C11.7559 4.83469 10.0822 5.56361 9.03612 6.91733L5.47945 10.9785C4.53798 12.0198 3.17808 12.6446 1.81818 12.6446V13.6859C3.49191 13.6859 5.16563 12.957 6.21171 11.6033L9.76837 7.54213C10.7098 6.5008 12.0697 5.87601 13.4296 5.87601Z" fill="#191414"/>
</svg>
