<svg width="19" height="19" viewBox="0 0 19 19" fill="none" xmlns="http://www.w3.org/2000/svg">
<path d="M3.49604 5.78725C4.91793 2.54519 8.44596 0.718094 11.8696 1.63156C15.6622 2.64347 17.8905 6.63526 16.8467 10.5475C15.8028 14.4597 11.8821 16.8108 8.08957 15.7989C6.24332 15.3063 4.71536 14.0906 3.78738 12.4286C3.65098 12.1842 3.34586 12.1028 3.10587 12.2467C2.86588 12.3907 2.7819 12.7054 2.9187 12.9505C3.97604 14.8441 5.71985 16.2316 7.8243 16.7931C12.1492 17.947 16.6201 15.2659 17.8105 10.8046C19.0008 6.34333 16.4597 1.7913 12.1349 0.637364C8.17789 -0.418406 4.09863 1.73618 2.52158 5.52725L0.919434 5.09978L2.01499 9.1195L4.9674 6.17983L3.49604 5.78725Z" fill="white"/>
<rect x="9.11182" y="3.31348" width="0.828359" height="5.38434" rx="0.414179" fill="white"/>
<rect x="9.11182" y="8.43506" width="0.82836" height="5.17725" rx="0.41418" transform="rotate(-43.0915 9.11182 8.43506)" fill="white"/>
</svg>
