<svg width="98" height="97" viewBox="0 0 98 97" fill="none" xmlns="http://www.w3.org/2000/svg">
<path d="M48.5611 0C21.7568 0 0 21.7294 0 48.5C0 75.3286 21.7568 97 48.5611 97C75.4235 97 97.1222 75.2706 97.1222 48.5C97.1802 21.7294 75.4235 0 48.5611 0ZM70.84 69.9976C69.9698 71.4462 68.1132 71.8519 66.6627 70.9827C55.2332 64.0293 40.9027 62.4648 23.9615 66.2891C22.3369 66.6368 20.7124 65.6517 20.3643 64.0293C20.0162 62.4068 21.0025 60.7844 22.627 60.4367C41.1348 56.2067 57.0317 58.003 69.7957 65.8256C71.3042 66.6947 71.7683 68.549 70.84 69.9976ZM76.8159 56.7861C75.7135 58.5824 73.3928 59.1039 71.5943 58.0609C58.5402 50.0066 38.64 47.6888 23.2072 52.3823C21.1766 52.9618 19.0879 51.8608 18.5078 49.8907C17.9276 47.8626 19.0299 45.7766 21.0605 45.1971C38.698 39.8662 60.6288 42.4158 75.6555 51.629C77.338 52.672 77.9182 54.9898 76.8159 56.7861ZM77.3381 42.9952C61.6732 33.724 35.8551 32.8548 20.8865 37.3746C18.5078 38.1278 15.955 36.7372 15.2007 34.3614C14.4465 31.9857 15.8389 29.4361 18.2177 28.6828C35.391 23.4677 63.9359 24.5108 81.9215 35.1726C84.0681 36.4474 84.7644 39.2288 83.488 41.3728C82.2696 43.5747 79.4847 44.27 77.3381 42.9952Z" fill="#1ED760"/>
</svg>
