<svg width="53" height="53" viewBox="0 0 53 53" fill="none" xmlns="http://www.w3.org/2000/svg">
<g clip-path="url(#clip0_1_199)">
<path d="M26.4747 0.0871582C11.8977 0.0871582 0.0800781 11.9044 0.0800781 26.4815C0.0800781 41.0592 11.8977 52.8755 26.4747 52.8755C41.0534 52.8755 52.8697 41.0592 52.8697 26.4815C52.8697 11.9054 41.0537 0.0871582 26.4747 0.0871582ZM38.5791 38.1554C38.1064 38.9307 37.0915 39.1766 36.3161 38.7006C30.1189 34.9153 22.3174 34.0579 13.1297 36.1571C12.2444 36.3588 11.3619 35.8041 11.1601 34.9184C10.9575 34.0327 11.51 33.1502 12.3976 32.9485C22.452 30.6514 31.0765 31.6405 38.0339 35.8923C38.8092 36.3683 39.0551 37.38 38.5791 38.1554ZM41.8098 30.9685C41.2141 31.9367 39.9471 32.2425 38.9794 31.6468C31.8846 27.2859 21.0696 26.0229 12.6778 28.5702C11.5894 28.899 10.4399 28.2856 10.1096 27.1992C9.78183 26.1108 10.3955 24.9636 11.4819 24.6326C21.0677 21.7241 32.9846 23.133 41.1322 28.1397C42.0998 28.7354 42.4055 30.0021 41.8098 30.9685ZM42.0872 23.4847C33.5803 18.432 19.545 17.9674 11.423 20.4324C10.1188 20.828 8.73951 20.0917 8.34427 18.7875C7.94902 17.4826 8.68467 16.1043 9.98985 15.7078C19.3134 12.8774 34.8127 13.4243 44.6068 19.2385C45.7824 19.9348 46.1669 21.4499 45.4704 22.6214C44.777 23.7945 43.2565 24.1813 42.0872 23.4847Z" fill="#F5F5F5"/>
</g>
<defs>
<clipPath id="clip0_1_199">
<rect width="53" height="53" fill="white"/>
</clipPath>
</defs>
</svg>
