<svg width="20" height="20" viewBox="0 0 20 20" fill="none" xmlns="http://www.w3.org/2000/svg">
<path fill-rule="evenodd" clip-rule="evenodd" d="M10 11.0315L15.6525 17.1361H4.34753L10 11.0315Z" fill="white"/>
<path fill-rule="evenodd" clip-rule="evenodd" d="M5.37869 13.8508C4.06839 12.6461 3.31425 10.9856 3.31425 9.2082C3.31425 5.66009 6.30754 2.78378 9.99996 2.78378C13.6924 2.78378 16.6857 5.66009 16.6857 9.2082C16.6857 10.9856 15.9315 12.6461 14.6212 13.8508L15.3323 14.565C16.8434 13.1757 17.7142 11.2581 17.7142 9.2082C17.7142 5.11423 14.2604 1.79541 9.99996 1.79541C5.73948 1.79541 2.28568 5.11423 2.28568 9.2082C2.28568 11.2581 3.15656 13.1757 4.66761 14.565L5.37869 13.8508Z" fill="white"/>
<path fill-rule="evenodd" clip-rule="evenodd" d="M7.03762 12.1825C6.19755 11.4101 5.71424 10.3459 5.71424 9.20644C5.71424 6.93201 7.63302 5.08823 9.99995 5.08823C12.3669 5.08823 14.2857 6.93201 14.2857 9.20644C14.2857 10.3459 13.8024 11.4101 12.9623 12.1825L13.6734 12.8966C14.7142 11.9397 15.3142 10.6184 15.3142 9.20644C15.3142 6.38615 12.935 4.09985 9.99995 4.09985C7.06496 4.09985 4.68567 6.38615 4.68567 9.20644C4.68567 10.6184 5.28571 11.9397 6.32654 12.8966L7.03762 12.1825Z" fill="white"/>
<path fill-rule="evenodd" clip-rule="evenodd" d="M8.69655 10.5142C8.3267 10.1741 8.11423 9.7063 8.11423 9.20468C8.11423 8.20394 8.9585 7.39267 9.99995 7.39267C11.0414 7.39267 11.8857 8.20394 11.8857 9.20468C11.8857 9.7063 11.6732 10.1741 11.3033 10.5142L12.0144 11.2283C12.585 10.7037 12.9142 9.97882 12.9142 9.20468C12.9142 7.65807 11.6095 6.4043 9.99995 6.4043C8.39043 6.4043 7.08566 7.65807 7.08566 9.20468C7.08566 9.97882 7.41487 10.7037 7.98547 11.2283L8.69655 10.5142Z" fill="white"/>
</svg>
