<svg width="17" height="18" viewBox="0 0 17 18" fill="none" xmlns="http://www.w3.org/2000/svg">
<path d="M15.3272 2.83658C14.4738 1.97559 13.328 1.46672 12.1171 1.41089C10.9061 1.35507 9.71841 1.75636 8.78946 2.53519C8.6826 2.61584 8.55389 2.66234 8.42016 2.66862C8.28562 2.66469 8.15583 2.61795 8.04968 2.53519C7.12115 1.75592 5.93351 1.35432 4.7226 1.41016C3.51168 1.46599 2.36604 1.97517 1.51316 2.83658C0.595882 3.75386 0.0907822 4.97373 0.0907822 6.27103C0.0907822 7.56832 0.595882 8.78818 1.48219 9.67211L6.79765 15.8941C6.99795 16.1291 7.24685 16.3178 7.52719 16.4472C7.80752 16.5766 8.1126 16.6436 8.42135 16.6436C8.73011 16.6436 9.03519 16.5766 9.31552 16.4472C9.59585 16.3178 9.84476 16.1291 10.0451 15.8941L15.3284 9.70547C15.7809 9.25552 16.1397 8.72031 16.3841 8.1308C16.6284 7.54128 16.7534 6.90917 16.7519 6.27103C16.753 5.63284 16.6276 5.00078 16.383 4.41131C16.1385 3.82183 15.7796 3.28663 15.3272 2.83658Z" fill="white"/>
</svg>
