<svg width="20" height="20" viewBox="0 0 20 20" fill="none" xmlns="http://www.w3.org/2000/svg">
<path d="M15.537 1.37207L14.7544 2.28785C16.6472 4.04258 17.839 6.54147 17.839 9.3188C17.839 12.0961 16.646 14.595 14.7544 16.3498L15.5358 17.2655C16.6402 16.2573 17.5223 15.0299 18.1258 13.6617C18.7294 12.2935 19.0412 10.8145 19.0413 9.31906C19.0414 7.82365 18.7299 6.34462 18.1265 4.97633C17.5231 3.60804 16.6412 2.38052 15.537 1.37207ZM12.8101 4.56468L12.0287 5.48046C12.5385 5.98146 12.9433 6.57898 13.2196 7.23815C13.496 7.89731 13.6382 8.60491 13.6381 9.31965C13.638 10.0344 13.4955 10.7419 13.219 11.401C12.9425 12.0601 12.5374 12.6575 12.0275 13.1583L12.8089 14.0741C14.0571 12.8739 14.8385 11.1888 14.8385 9.32C14.8385 7.45124 14.0583 5.76492 12.8101 4.56468ZM0 5.71811V12.9195H3.36545L9.60185 16.5202V2.11741L3.36545 5.71811H0ZM8.40162 4.19621V14.4414L3.68711 11.7193H1.20023V6.91834H3.68711L8.40162 4.19621Z" fill="white"/>
</svg>
