<svg width="20" height="20" viewBox="0 0 20 20" fill="none" xmlns="http://www.w3.org/2000/svg">
<path d="M3.66238 14.4628H15.5632C16.2178 14.4628 16.7533 13.9273 16.7533 13.2728V3.75209C16.7533 3.09755 16.2178 2.56201 15.5632 2.56201H3.66238C3.00783 2.56201 2.4723 3.09755 2.4723 3.75209V13.2728C2.4723 13.9273 3.00783 14.4628 3.66238 14.4628ZM3.66238 3.75209H15.5632V13.2728H3.66238V3.75209ZM18.5384 16.843H0.685984C0.358711 16.843 0.0909424 17.1108 0.0909424 17.438C0.0909424 17.7653 0.358711 18.0331 0.685984 18.0331H18.5384C18.8657 18.0331 19.1335 17.7653 19.1335 17.438C19.1335 17.1108 18.8657 16.843 18.5384 16.843Z" fill="white"/>
</svg>
