<svg width="20" height="20" viewBox="0 0 20 20" fill="none" xmlns="http://www.w3.org/2000/svg">
<path d="M7.45455 5.62804H12.8099V7.41316L16.9752 5.033L12.8099 2.65283V4.43796H7.45455C4.47935 4.43796 2.09918 6.81812 2.09918 9.79333C2.09918 10.5074 2.21819 11.2214 2.57522 11.9355L3.64629 11.3404C3.40827 10.8644 3.28926 10.3884 3.28926 9.79333C3.28926 7.53217 5.1934 5.62804 7.45455 5.62804ZM18.2843 7.65118L17.2132 8.24622C17.4512 8.72225 17.5703 9.19829 17.5703 9.79333C17.5703 12.0545 15.6661 13.9586 13.405 13.9586H8.0496V12.1735L3.88431 14.5537L8.0496 16.9338V15.1487H13.405C16.3802 15.1487 18.7603 12.7685 18.7603 9.79333C18.7603 9.07928 18.6413 8.36523 18.2843 7.65118Z" fill="white"/>
</svg>
