<svg width="18" height="17" viewBox="0 0 18 17" fill="none" xmlns="http://www.w3.org/2000/svg">
<g clip-path="url(#clip0_147_1706)">
<path d="M13.7155 11.4579L17.2733 15.6278L16.0491 16.6702L12.5008 12.5099C11.3532 13.275 10.0875 13.6576 8.70392 13.6576C7.77938 13.6576 6.89472 13.4775 6.04992 13.1172C5.20512 12.757 4.47825 12.2724 3.86932 11.6635C3.26039 11.0546 2.77581 10.3277 2.4156 9.48291C2.05539 8.63809 1.87527 7.75342 1.87524 6.82892C1.87522 5.90441 2.05534 5.01974 2.4156 4.17492C2.77586 3.33009 3.26044 2.60323 3.86932 1.99432C4.4782 1.38541 5.20507 0.90084 6.04992 0.540601C6.89477 0.180363 7.77943 0.000244141 8.70392 0.000244141C9.6284 0.000244141 10.5131 0.180363 11.3579 0.540601C12.2028 0.90084 12.9296 1.38541 13.5385 1.99432C14.1474 2.60323 14.632 3.33009 14.9922 4.17492C15.3525 5.01974 15.5326 5.90441 15.5326 6.82892C15.5326 7.4155 15.4593 7.98934 15.3126 8.55042C15.166 9.1115 14.9572 9.63434 14.6862 10.1189C14.4152 10.6035 14.0916 11.0498 13.7154 11.4579H13.7155ZM8.70395 12.0508C9.41168 12.0508 10.0875 11.9121 10.7315 11.6347C11.3755 11.3574 11.9302 10.986 12.3956 10.5205C12.8611 10.0551 13.2325 9.50041 13.5098 8.85643C13.7872 8.21245 13.9259 7.5366 13.9259 6.82888C13.9259 6.12116 13.7872 5.4453 13.5098 4.80132C13.2325 4.15734 12.8611 3.60263 12.3956 3.13717C11.9302 2.67172 11.3755 2.30032 10.7315 2.02298C10.0875 1.74564 9.41168 1.60697 8.70395 1.60697C7.99623 1.60697 7.32038 1.74564 6.6764 2.02298C6.03242 2.30032 5.4777 2.67173 5.01225 3.13721C4.54679 3.60269 4.17539 4.15739 3.89805 4.80132C3.62071 5.44525 3.48204 6.12111 3.48204 6.82888C3.48204 7.53665 3.62071 8.2125 3.89805 8.85643C4.17539 9.50036 4.5468 10.0551 5.01228 10.5205C5.47776 10.986 6.03247 11.3574 6.6764 11.6347C7.32033 11.9121 7.99618 12.0507 8.70395 12.0508Z" fill="#191414"/>
</g>
<defs>
<clipPath id="clip0_147_1706">
<rect width="16.67" height="16.67" fill="white" transform="translate(0.833496)"/>
</clipPath>
</defs>
</svg>
