<svg width="20" height="20" viewBox="0 0 20 20" fill="none" xmlns="http://www.w3.org/2000/svg">
<path d="M6.02559 8.25084L6.82441 7.34205C5.56912 5.86526 3.74324 5.07007 1.91736 5.07007V6.20606C3.40089 6.20606 4.88441 6.88765 5.91147 8.02364L6.02559 8.25084ZM14.5844 13.59C13.215 13.59 11.9597 13.022 10.9326 12.1132L10.2479 13.022C11.3891 14.158 12.9868 14.726 14.5844 14.726V16.4299L18.5785 14.158L14.5844 11.886V13.59ZM14.5844 6.77405V8.47803L18.5785 6.20606L14.5844 3.93408V5.63806C12.7585 5.63806 10.9326 6.43326 9.79147 7.91004L5.91147 12.3404C4.88441 13.4764 3.40089 14.158 1.91736 14.158V15.294C3.74324 15.294 5.56912 14.4988 6.71029 13.022L10.5903 8.59163C11.6173 7.45564 13.1009 6.77405 14.5844 6.77405Z" fill="white"/>
</svg>
